<svg width="64" height="10" viewBox="0 0 64 10" fill="none" xmlns="http://www.w3.org/2000/svg">
<g id="Left">
<g id="Vector">
<path d="M37.42 7.06C37.02 7.34 36.53 7.5 36 7.5C34.62 7.5 33.5 6.38 33.5 5C33.5 3.62 34.62 2.5 36 2.5C36.6 2.5 37.14 2.72 37.57 3.07L39.34 1.3C38.45 0.499999 37.29 0 36 0C33.24 0 31 2.24 31 5C31 7.76 33.24 10 36 10C37.22 10 38.32 9.55 39.18 8.83L37.42 7.06Z" fill="#0B6F72"/>
<path d="M45.22 0.250015H47.61V9.73001H45.22V6.16002H42.54V9.73001H40.14V0.250015H42.54V3.81002H45.22V0.250015Z" fill="#0B6F72"/>
<path d="M55.41 9.74002L54.96 8.63002H51.59L51.13 9.74002H48.51L52.7 0.140015H53.84L58.04 9.74002H55.41ZM52.34 6.79002H54.19L53.27 4.54002L52.34 6.79002Z" fill="#0B6F72"/>
<path d="M64 0.250015V2.60001H61.84V9.73001H59.44V2.60001H57.27V0.250015H64Z" fill="#0B6F72"/>
</g>
<g id="Vector_2">
<path d="M19.79 0.165019C20.165 0.120019 20.755 0.165019 20.755 0.165019V9.735H18.36V5.97501C18.36 5.97501 17.57 9.57 15.93 9.575H15.915C14.275 9.57 13.48 5.97501 13.48 5.97501V9.735H11.085V0.165019C11.085 0.165019 11.675 0.120019 12.05 0.165019C14.6 0.455019 15.925 5.74001 15.925 5.74001C15.925 5.74001 17.25 0.455019 19.795 0.165019H19.79Z" fill="#0B6F72"/>
<path d="M25.9849 10C23.92 10 22.24 8.465 22.24 6.29001V0.255018C23.57 0.255018 24.65 1.33502 24.65 2.66501V6.28001C24.65 7.07001 25.2949 7.59 25.9749 7.59C26.6549 7.59 27.3149 7.05501 27.3149 6.28001V2.66501C27.3149 1.33502 28.3949 0.255018 29.7249 0.255018V6.29001C29.7249 8.465 28.0449 10 25.9799 10H25.9849Z" fill="#0B6F72"/>
<path d="M4.99999 0C2.24 0 0 2.24 0 4.99999C0 7.75998 2.24 9.99998 4.99999 9.99998C7.75998 9.99998 9.99998 7.75998 9.99998 4.99999C9.99998 2.24 7.75998 0 4.99999 0ZM4.99999 7.49999C3.61999 7.49999 2.49999 6.37999 2.49999 4.99999C2.49999 3.61999 3.61999 2.5 4.99999 2.5C6.37999 2.5 7.49999 3.61999 7.49999 4.99999C7.49999 6.37999 6.37999 7.49999 4.99999 7.49999Z" fill="#0B6F72"/>
</g>
</g>
</svg>
